<svg width="440" height="440" viewBox="0 0 440 440" fill="none" xmlns="http://www.w3.org/2000/svg">
<path opacity="0.1" d="M220 440C341.503 440 440 431.342 440 420.662C440 409.983 341.503 401.325 220 401.325C98.4974 401.325 0 409.983 0 420.662C0 431.342 98.4974 440 220 440Z" fill="#F72585"/>
<path d="M405.491 406.341C405.495 407.869 405.382 409.393 405.156 410.888C405.114 411.169 405.068 411.474 405.022 411.714C403.832 418.389 400.475 423.27 396.469 423.581C396.335 423.581 396.201 423.581 396.05 423.581C391.814 423.581 388.231 418.471 387.049 411.433C387.016 411.246 386.986 411.058 386.957 410.847C386.731 409.352 386.618 407.828 386.622 406.3C386.622 396.766 390.841 389.043 396.05 389.043C401.259 389.043 405.491 396.819 405.491 406.341Z" fill="#3F3D56"/>
<path opacity="0.1" d="M405.491 406.341C405.495 407.869 405.382 409.393 405.156 410.888C405.114 411.169 405.068 411.474 405.022 411.714C404.88 411.714 404.741 411.714 404.603 411.714C403.565 411.636 402.534 411.44 401.519 411.128C400.62 411.517 399.701 411.811 398.77 412.007C398.056 412.158 397.337 412.252 396.616 412.289H395.887C395.024 412.289 394.161 412.209 393.306 412.048C391.922 411.79 390.563 411.318 389.253 410.642C388.536 410.976 387.806 411.25 387.066 411.462C387.032 411.275 387.003 411.087 386.974 410.876C386.748 409.381 386.635 407.857 386.638 406.329C386.638 396.795 390.858 389.072 396.067 389.072C401.276 389.072 405.491 396.819 405.491 406.341Z" fill="black"/>
<path d="M425.606 374.2C425.609 370.006 424.906 365.87 423.552 362.128L412.464 366.951L422.199 358.946C420.567 355.647 418.426 352.903 415.933 350.916C413.441 348.929 410.662 347.75 407.8 347.467C407.344 346.502 406.844 345.578 406.304 344.701L390.381 351.633L403.442 340.898C400.944 338.218 398.011 336.44 394.904 335.721C391.797 335.003 388.612 335.366 385.629 336.778C382.646 338.19 379.959 340.608 377.803 343.819C375.648 347.029 374.091 350.933 373.271 355.184L386.911 377.147L372.114 362.175C368.362 365.891 365.69 371.368 364.586 377.609C363.481 383.85 364.018 390.437 366.097 396.171C368.176 401.905 371.66 406.403 375.913 408.844C380.166 411.285 384.905 411.507 389.266 409.47C393.21 411.492 397.518 411.656 401.536 409.939C404.336 410.805 407.24 410.782 410.033 409.87C412.827 408.958 415.438 407.181 417.675 404.67C419.911 402.159 421.717 398.978 422.957 395.362C424.198 391.745 424.842 387.786 424.843 383.775C424.843 383.189 424.843 382.603 424.801 382.017C425.344 379.481 425.615 376.847 425.606 374.2Z" fill="#F72585"/>
<path opacity="0.1" d="M425.275 379.175C419.419 377.62 413.414 377.513 407.532 378.858C400.874 380.399 394.068 383.786 387.556 381.308C383.734 379.854 380.432 376.491 376.699 374.627C373.097 372.865 369.216 372.539 365.489 373.684C364.068 378.435 363.655 383.657 364.3 388.728C364.945 393.798 366.62 398.501 369.125 402.275C371.631 406.05 374.861 408.735 378.428 410.011C381.996 411.287 385.751 411.099 389.245 409.47C393.189 411.492 397.497 411.656 401.515 409.939C404.315 410.805 407.219 410.782 410.013 409.87C412.806 408.958 415.417 407.181 417.654 404.67C419.89 402.159 421.696 398.978 422.936 395.362C424.177 391.745 424.821 387.786 424.822 383.775C424.822 383.189 424.822 382.603 424.78 382.017C424.982 381.083 425.147 380.134 425.275 379.175Z" fill="black"/>
<path d="M292.747 100.772H290.345C289.815 100.772 289.386 101.373 289.386 102.114V149.251C289.386 149.992 289.815 150.593 290.345 150.593H292.747C293.276 150.593 293.706 149.992 293.706 149.251V102.114C293.706 101.373 293.276 100.772 292.747 100.772Z" fill="#3F3D56"/>
<path d="M147.526 61.7396H146.357C146.009 61.7396 145.728 62.1331 145.728 62.6185V77.2624C145.728 77.7478 146.009 78.1413 146.357 78.1413H147.526C147.873 78.1413 148.154 77.7478 148.154 77.2624V62.6185C148.154 62.1331 147.873 61.7396 147.526 61.7396Z" fill="#3F3D56"/>
<path d="M147.664 91.7714H146.348C145.957 91.7714 145.64 92.2148 145.64 92.7617V119.33C145.64 119.877 145.957 120.321 146.348 120.321H147.664C148.055 120.321 148.372 119.877 148.372 119.33V92.7617C148.372 92.2148 148.055 91.7714 147.664 91.7714Z" fill="#3F3D56"/>
<path d="M147.61 130.306H146.357C145.984 130.306 145.682 130.728 145.682 131.249V158.158C145.682 158.679 145.984 159.101 146.357 159.101H147.61C147.982 159.101 148.284 158.679 148.284 158.158V131.249C148.284 130.728 147.982 130.306 147.61 130.306Z" fill="#3F3D56"/>
<path d="M276.76 7.54163H162.058C153.798 7.54163 147.103 16.9051 147.103 28.4555V397.621C147.103 409.172 153.798 418.535 162.058 418.535H276.76C285.02 418.535 291.716 409.172 291.716 397.621V28.4555C291.716 16.9051 285.02 7.54163 276.76 7.54163Z" fill="#3F3D56"/>
<path d="M224.589 19.8122H206.523C205.936 19.8122 205.459 20.4786 205.459 21.3006V24.0606C205.459 24.8826 205.936 25.549 206.523 25.549H224.589C225.176 25.549 225.653 24.8826 225.653 24.0606V21.3006C225.653 20.4786 225.176 19.8122 224.589 19.8122Z" fill="#E6E8EC"/>
<path d="M231.033 25.9299C232.318 25.9299 233.359 24.4739 233.359 22.6777C233.359 20.8815 232.318 19.4255 231.033 19.4255C229.749 19.4255 228.708 20.8815 228.708 22.6777C228.708 24.4739 229.749 25.9299 231.033 25.9299Z" fill="#E6E8EC"/>
<path d="M282.786 34.3037V391.756C282.785 396.015 281.574 400.098 279.42 403.109C277.266 406.12 274.345 407.812 271.3 407.812H167.518C164.473 407.812 161.552 406.12 159.398 403.109C157.244 400.098 156.033 396.015 156.032 391.756V34.3037C156.032 32.1944 156.329 30.1058 156.907 28.157C157.484 26.2083 158.33 24.4377 159.396 22.9462C160.463 21.4547 161.729 20.2716 163.123 19.4644C164.516 18.6572 166.01 18.2418 167.518 18.2418H183.048V21.0311C183.053 24.5352 184.051 27.8938 185.824 30.37C187.597 32.8462 190 34.2377 192.506 34.2392H245.306C246.548 34.2392 247.778 33.8971 248.925 33.2325C250.073 32.5678 251.116 31.5936 251.994 30.3655C252.872 29.1374 253.569 27.6794 254.044 26.0747C254.519 24.4701 254.764 22.7503 254.764 21.0135V18.2418H271.321C274.363 18.2495 277.279 19.9452 279.429 22.9565C281.578 25.9679 282.786 30.0489 282.786 34.3037Z" fill="white"/>
<path opacity="0.2" d="M283.695 181.908V303.459H282.786V303.582H156.032V155.081C156.845 153.784 157.669 152.439 158.505 151.044C176.306 121.317 200.502 113.494 219.229 112.674C232.06 112.088 244.833 115.797 257.027 123.163C263.468 127.054 272.712 131.32 282.786 131.742V177.695C283.402 180.15 283.695 181.908 283.695 181.908Z" fill="#F72585"/>
<path opacity="0.2" d="M283.695 181.908V303.459H156.032V223.835C160.579 222.236 166.927 216.083 175.074 199.083C184.817 178.744 198.054 173.394 208.3 172.831C215.319 172.444 222.309 174.964 228.98 180.009C236.485 185.676 250.951 192.508 261.942 172.673C274.095 150.739 280.556 168.829 282.786 177.695C283.402 180.15 283.695 181.908 283.695 181.908Z" fill="#F72585"/>
<path d="M265.257 281.198H173.905C171.128 281.198 168.876 284.346 168.876 288.229V318.701C168.876 322.584 171.128 325.733 173.905 325.733H265.257C268.034 325.733 270.286 322.584 270.286 318.701V288.229C270.286 284.346 268.034 281.198 265.257 281.198Z" fill="#736E9E"/>
<path d="M56.1775 400.651L64.198 394.035C63.1133 391.444 61.7268 389.125 60.0955 387.173L44.9637 393.777L56.8228 384.027C53.8872 381.778 50.5834 380.637 47.2366 380.716C43.8899 380.795 40.6155 382.091 37.7358 384.477C34.8561 386.863 32.4703 390.256 30.8133 394.323C29.1563 398.39 28.2852 402.99 28.2856 407.671C28.2856 422.561 36.9138 423.077 47.5618 423.077C58.2098 423.077 66.838 422.561 66.838 407.671C66.8418 403.904 66.2778 400.178 65.1828 396.737L56.1775 400.651Z" fill="#F72585"/>
<path opacity="0.1" d="M58.2183 415.131C57.3647 413.933 56.4108 412.885 55.3772 412.007C53.9189 410.654 52.4145 409.277 50.6964 408.814C49.1879 408.409 47.6332 408.749 46.0869 408.632C43.419 408.402 40.9078 406.792 39.0427 404.114C37.949 402.532 37.0858 400.598 35.77 399.374C34.3494 398.073 32.5475 397.791 30.8629 398.114C30.3747 398.217 29.8908 398.356 29.413 398.53C28.6567 401.463 28.2711 404.559 28.2732 407.677C28.2732 422.567 36.9014 423.083 47.5494 423.083C52.7163 423.083 57.4054 422.959 60.8667 421.131L60.2884 419.619C59.7369 418.007 59.0413 416.499 58.2183 415.131Z" fill="black"/>
<path d="M95.6434 341.22C95.0309 341.972 94.5591 342.921 94.2689 343.986C93.5524 347.115 95.5554 350.186 95.7482 353.461C95.899 356.063 94.9101 358.489 94.3486 360.986C93.7148 364.087 93.7558 367.381 94.4663 370.449C95.1768 373.518 96.5246 376.221 98.3379 378.214C98.7239 378.672 99.1797 379 99.6705 379.175C100.075 379.243 100.486 379.195 100.877 379.034C101.268 378.872 101.632 378.601 101.946 378.237C102.919 377.247 103.661 375.877 104.079 374.299C104.426 372.749 104.614 371.136 104.636 369.512L104.934 363.242C105.244 356.696 105.525 349.946 104.385 343.517C104.012 341.408 103.32 336.562 101.577 336.269C99.8339 335.976 96.8 339.638 95.6434 341.22Z" fill="#3F3D56"/>
<path d="M124.876 314.288C122.783 324.567 121.265 335.059 120.338 345.668C120.204 347.162 120.065 348.733 119.42 349.94C118.134 352.36 115.556 352.207 113.419 351.815C112.906 351.777 112.406 351.577 111.957 351.229C111.152 350.467 110.976 348.944 110.88 347.59C109.416 327.635 108.438 307.628 107.947 287.567C107.926 286.8 125.836 286.729 127.369 288.739C128.903 290.749 127.713 298.267 127.369 300.828C126.808 305.387 125.794 309.829 124.876 314.288Z" fill="#FBBEBE"/>
<path opacity="0.05" d="M124.876 314.288C122.783 324.567 121.265 335.059 120.338 345.668C120.204 347.162 120.065 348.733 119.42 349.94C118.134 352.36 115.556 352.207 113.419 351.815C112.906 351.777 112.406 351.577 111.957 351.229C111.152 350.467 110.976 348.944 110.88 347.59C109.416 327.635 108.438 307.628 107.947 287.567C107.926 286.8 125.836 286.729 127.369 288.739C128.903 290.749 127.713 298.267 127.369 300.828C126.808 305.387 125.794 309.829 124.876 314.288Z" fill="black"/>
<path d="M87.5811 284.713L94.8348 307.022C97.2485 314.441 99.679 321.941 100.831 329.928C101.294 333.265 101.589 336.642 101.716 340.036C101.891 342.946 101.826 345.873 101.523 348.762C101.259 350.907 100.773 352.993 100.559 355.149C99.7209 363.746 103.203 371.832 105.588 379.831C107.648 386.7 108.958 393.964 109.476 401.378C109.694 404.536 109.816 407.888 111.106 410.496C113.466 409.505 115.77 408.65 118.23 409.036C118.67 403.991 116.391 399.344 115.552 394.387C114.015 385.304 117.413 375.758 116.256 366.564C115.628 361.583 113.679 356.895 113.839 351.844C114.136 342.632 115.372 333.327 114.115 324.303C112.699 314.101 108.626 304.825 107.725 294.511C107.033 286.589 108.144 277.828 104.988 271.171C98.095 270.603 90.967 276.293 87.5811 284.713Z" fill="#FBBEBE"/>
<path d="M111.421 424.811C110.696 424.846 109.849 424.811 109.401 424.008C109.182 423.541 109.056 423.001 109.036 422.444C108.693 418.911 108.525 415.35 108.533 411.785C108.533 410.484 108.575 409.101 109.095 408.029C109.476 407.374 109.911 406.784 110.39 406.271C111.5 404.835 112.309 402.755 113.742 402.093C114.37 401.837 115.036 401.825 115.668 402.057C116.301 402.289 116.876 402.757 117.333 403.411C118.238 404.759 118.797 406.488 118.926 408.327C119.135 410.507 118.959 412.881 119.785 414.773C120.112 415.506 120.568 416.103 120.937 416.795C122.194 419.139 123.321 423.727 120.728 424.676C117.979 425.678 114.274 424.682 111.421 424.811Z" fill="#3F3D56"/>
<path d="M117.711 152.691C119.177 148.729 118.301 143.631 116.206 140.268C114.111 136.904 111.048 135.029 107.922 134.015C103.731 132.644 99.2389 132.656 95.2286 134.812C92.0313 136.529 89.2781 139.5 86.328 141.926C81.1146 146.218 75.2795 148.821 69.2518 149.544C62.5471 150.335 55.0587 149.104 49.8751 155.076C40.3795 166.01 46.992 190.651 38.1417 202.582C35.7532 205.799 32.5642 207.539 29.8278 210.158C27.0915 212.778 24.6442 216.968 25.0842 221.562C25.2937 223.771 26.157 225.763 27.1543 227.504C31.437 234.987 38.6278 238.907 45.429 237.741C52.2301 236.575 58.4572 230.469 61.7718 222.066C62.6099 219.962 63.2888 217.659 64.6088 216.13C67.253 213.077 71.1334 214.313 74.5612 214.167C82.1836 213.838 89.1063 204.703 89.7726 194.073C90.0576 189.532 89.5044 184.246 91.8385 181.058C93.72 178.48 96.6618 178.503 99.2347 177.712C103.962 176.265 107.402 171.483 109.56 165.647C110.549 162.963 110.448 159.963 111.915 157.736C113.478 155.287 116.315 156.453 117.711 152.691Z" fill="#3F3D56"/>
<g opacity="0.1">
<path opacity="0.1" d="M63.004 151.401C65.7841 151.07 68.5323 150.337 71.2047 149.216C70.4504 149.362 69.6961 149.485 68.9377 149.573C63.6828 150.188 57.9335 149.573 53.1982 152.157C56.4249 151.694 59.8066 151.776 63.004 151.401Z" fill="black"/>
<path opacity="0.1" d="M58.3272 217.987C57.0072 219.511 56.3116 221.819 55.4903 223.923C52.9508 230.325 48.884 235.275 44 237.911C44.373 237.876 44.7459 237.829 45.1189 237.764C51.92 236.592 58.147 230.498 61.4617 222.095C62.2998 219.991 62.9745 217.682 64.2987 216.159L64.5249 215.913C62.2244 215.837 60.0202 216.03 58.3272 217.987Z" fill="black"/>
<path opacity="0.1" d="M115.892 140.303C113.797 136.939 110.712 135.07 107.607 134.05C103.417 132.679 98.9245 132.697 94.91 134.853L94.6418 135.005C97.0036 134.818 99.3723 135.112 101.673 135.879C104.779 136.898 107.867 138.768 109.958 142.137C112.049 145.506 112.929 150.599 111.462 154.56C110.067 158.322 107.23 157.15 105.633 159.582C104.167 161.803 104.267 164.809 103.278 167.493C101.422 172.515 98.6102 176.745 94.8556 178.755C96.1672 178.322 97.5752 178.128 98.8826 177.73C103.609 176.277 107.05 171.501 109.208 165.664C110.201 162.981 110.101 159.974 111.563 157.754C113.164 155.322 116.001 156.488 117.392 152.732C118.859 148.782 117.983 143.684 115.892 140.303Z" fill="black"/>
<path opacity="0.1" d="M92.9532 179.564C90.3802 180.349 87.4385 180.332 85.557 182.904C83.2229 186.098 83.776 191.383 83.4911 195.925C82.9924 203.865 78.9989 210.973 73.832 214.202H74.2134C81.8358 213.874 88.7543 204.732 89.4206 194.108C89.7097 189.561 89.1566 184.275 91.4907 181.088C92.0256 180.374 92.6547 179.813 93.3429 179.435L92.9532 179.564Z" fill="black"/>
</g>
<path d="M117.836 206.021C117.488 206.883 116.772 207.281 116.106 207.627C109.208 211.178 101.95 214.794 94.6755 213.299C94.4031 211.7 94.1349 210.094 93.8667 208.494C93.4784 206.174 93.0873 203.853 92.6934 201.533C92.509 200.425 92.3204 199.306 92.1696 198.181C91.9097 196.404 91.8265 194.586 91.9223 192.778C91.9667 192.123 92.0508 191.474 92.1738 190.838C92.389 189.682 92.7494 188.589 93.2382 187.61C93.322 187.451 93.41 187.293 93.5022 187.141C93.9165 186.442 94.4194 185.856 94.9856 185.412C96.2218 184.463 97.9189 184.059 98.4176 182.219C98.6105 181.256 98.5915 180.235 98.3631 179.289C97.9441 176.945 97.1856 174.741 96.7162 172.421C96.1212 169.491 97.018 169.673 99.042 168.963C102.688 167.68 106.501 166.76 110.243 167.792C110.067 170.376 109.895 173.024 110.36 175.544C110.826 178.064 112.07 180.455 113.859 181.152C114.123 181.257 114.404 181.322 114.698 181.41C115.086 181.497 115.455 181.71 115.775 182.031C115.995 182.286 116.17 182.609 116.286 182.974C116.468 183.593 116.588 184.244 116.642 184.908C117.298 191.057 117.772 197.235 118.063 203.443V203.677C118.149 204.473 118.07 205.286 117.836 206.021Z" fill="#FBBEBE"/>
<path d="M82.3262 195.925C80.7589 199.259 80.2309 203.314 79.7532 207.252L76.7109 231.922C76.2919 235.297 75.9189 239.006 77.1551 241.966C77.5742 242.968 78.1608 243.835 78.4667 244.896C78.6978 245.963 78.8495 247.061 78.9193 248.171C79.6317 253.826 83.6084 257.641 87.5978 259.012C89.0393 259.51 90.7239 259.704 91.8595 258.362C93.1166 256.903 93.1166 254.125 92.3749 252.121C91.6332 250.117 90.2797 248.699 88.9681 247.357L84.6225 242.88L87.1368 215.924C87.3212 213.967 87.9749 211.43 89.3913 211.647C90.682 211.84 91.6751 214.471 92.8233 213.622C93.1831 213.281 93.4364 212.761 93.5315 212.168C94.0343 209.959 93.8961 207.58 93.7536 205.265L93.234 196.909C93.0621 194.196 93.5608 192.163 93.7955 189.614C94.0679 186.643 92.6515 187.545 90.9041 188.184C87.5475 189.426 84.2663 191.788 82.3262 195.925Z" fill="#FBBEBE"/>
<path d="M136.362 236.44C136.043 237.191 135.57 237.791 135.005 238.163C131.612 240.838 127.622 241.622 123.833 240.36C122.96 240.001 122.073 239.712 121.176 239.493C119.743 239.247 118.285 239.645 116.839 239.493C113.906 239.182 111.329 236.622 109.296 233.633C108.073 231.875 106.962 228.998 108.102 227.111C108.42 226.656 108.816 226.32 109.252 226.136C109.688 225.951 110.15 225.924 110.595 226.056C111.482 226.333 112.338 226.778 113.139 227.381C115.943 229.199 118.944 230.355 122.018 230.803C124.114 231.107 126.779 230.609 127.504 227.826C127.856 226.472 127.608 224.972 127.361 223.572C126.685 219.735 126.009 215.897 125.333 212.057C125.287 211.722 125.202 211.399 125.082 211.102C125.047 211.021 125.007 210.947 124.96 210.879C124.693 210.568 124.37 210.365 124.026 210.293C122.463 209.754 120.9 208.881 119.781 207.269C119.047 206.125 118.463 204.81 118.054 203.384C117.937 203.027 117.828 202.664 117.715 202.3C116.856 199.499 115.951 196.628 115.251 193.686C114.762 191.698 114.402 189.653 114.174 187.574C113.989 185.775 113.889 184.949 114.593 184.152C114.782 183.953 114.982 183.777 115.192 183.625C115.515 183.385 115.879 183.144 116.265 182.916L116.638 182.699C117.784 182.058 118.962 181.533 120.162 181.129C123.07 180.185 126.175 182.154 128.17 185.266C130.165 188.377 131.2 192.45 131.862 196.522C132.524 200.595 132.863 204.767 133.693 208.775C134.016 210.346 134.418 211.893 134.695 213.463C134.991 215.331 135.203 217.224 135.327 219.13C135.721 223.986 136.114 228.842 136.505 233.697C136.649 234.611 136.6 235.565 136.362 236.44Z" fill="#FBBEBE"/>
<path d="M93.3344 234.33C94.1725 241.807 91.763 249.162 89.4331 256.012C90.7531 257.36 92.3664 258.028 93.942 258.608C104.488 262.484 115.451 263.638 126.293 262.012C126.552 259.481 126.795 256.797 126.054 254.465C125.593 253.017 124.797 251.84 124.289 250.421C123.451 248.078 123.535 245.353 123.627 242.751L124.377 220.583C119.177 217.231 113.147 220.372 107.427 220.823C104.464 221.058 101.464 220.554 98.5432 221.286C97.0262 221.667 92.2575 222.716 91.5409 224.902C90.8243 227.087 93.0788 231.951 93.3344 234.33Z" fill="#FBBEBE"/>
<path opacity="0.05" d="M93.3344 234.33C94.1725 241.807 91.763 249.162 89.4331 256.012C90.7531 257.36 92.3664 258.028 93.942 258.608C104.488 262.484 115.451 263.638 126.293 262.012C126.552 259.481 126.795 256.797 126.054 254.465C125.593 253.017 124.797 251.84 124.289 250.421C123.451 248.078 123.535 245.353 123.627 242.751L124.377 220.583C119.177 217.231 113.147 220.372 107.427 220.823C104.464 221.058 101.464 220.554 98.5432 221.286C97.0262 221.667 92.2575 222.716 91.5409 224.902C90.8243 227.087 93.0788 231.951 93.3344 234.33Z" fill="black"/>
<path d="M107.113 255.789C101.477 254.148 95.9369 251.435 90.1834 251.248C89.8945 251.207 89.6033 251.284 89.3453 251.47C89.0645 251.795 88.877 252.251 88.8173 252.754C88.2223 255.625 87.6901 258.518 87.2207 261.432C85.6619 271.119 84.895 281.819 88.3228 290.515C88.2893 287.69 89.559 285.048 91.2562 283.483C92.9533 281.918 94.9857 281.285 96.9971 281.028C99.0086 280.77 101.158 280.875 103.031 282.03C104.34 282.861 105.47 284.16 106.306 285.796C107.143 287.431 107.656 289.346 107.796 291.347L127.596 292.243C127.712 292.291 127.834 292.297 127.952 292.261C128.07 292.226 128.18 292.149 128.272 292.039C128.363 291.929 128.434 291.789 128.477 291.631C128.52 291.473 128.534 291.303 128.518 291.136C129.248 282.254 129.221 273.282 128.438 264.409C128.22 261.93 128.191 258.491 126.196 257.559C123.816 256.445 120.053 257.746 117.51 257.594C114.015 257.389 110.538 256.785 107.113 255.789Z" fill="#3F3D56"/>
<path d="M125.086 212.379L125.023 224.685L104.992 225.617C101.317 225.792 97.613 225.968 94.0302 227.111C92.9993 227.439 91.981 227.849 90.9669 228.254C89.9109 222.845 88.8717 217.178 89.1483 211.664C89.2247 210.177 89.41 208.704 89.7014 207.269C90.3384 204.175 91.5327 201.257 92.1696 198.198C92.4263 197.007 92.5672 195.774 92.5887 194.53C92.5411 193.288 92.4006 192.057 92.1696 190.856C91.9858 189.871 91.8984 188.856 91.9098 187.838L93.498 187.152C93.5441 187.416 93.5818 187.674 93.6153 187.944C93.6824 188.5 93.7368 189.069 93.7746 189.637C93.8643 191.046 93.8922 192.46 93.8584 193.874C93.8039 196.698 93.5315 199.845 94.7928 202.078C96.4313 204.943 99.5826 204.498 102.156 203.783L108.894 201.902C111.023 201.316 113.399 200.484 114.509 197.876C114.983 196.61 115.233 195.203 115.238 193.774V193.493C115.338 190.38 115.117 187.264 114.58 184.24C114.417 183.291 114.216 182.353 113.989 181.433H114.664C115.053 181.521 115.421 181.733 115.741 182.054C115.962 182.309 116.137 182.632 116.252 182.998L116.625 182.781C118.112 191.28 120.562 199.391 123.883 206.806C124.31 207.655 124.649 208.585 124.889 209.566C124.988 210.099 125.045 210.645 125.056 211.196C125.09 211.541 125.086 211.957 125.086 212.379Z" fill="#FF6F61"/>
<path d="M103.924 175.134C110.635 175.134 116.076 167.526 116.076 158.14C116.076 148.755 110.635 141.147 103.924 141.147C97.2123 141.147 91.7715 148.755 91.7715 158.14C91.7715 167.526 97.2123 175.134 103.924 175.134Z" fill="#FBBEBE"/>
<path d="M82.3262 195.925C80.7589 199.259 80.2309 203.314 79.7532 207.252L76.7109 231.922C76.2919 235.297 75.9189 239.006 77.1551 241.966C77.5742 242.968 78.1608 243.835 78.4667 244.896C78.6978 245.963 78.8495 247.061 78.9193 248.171C79.6317 253.826 83.6084 257.641 87.5978 259.012C89.0393 259.51 90.7239 259.703 91.8595 258.362C93.1166 256.902 93.1166 254.125 92.3749 252.121C91.6332 250.117 90.2797 248.699 88.9681 247.357L84.6225 242.88L87.1368 215.924C87.3044 213.985 84.2663 191.788 82.3262 195.925Z" fill="#FBBEBE"/>
<path d="M131.866 196.558C132.528 200.63 132.868 204.802 133.697 208.811C134.02 210.387 134.422 211.928 134.699 213.498C134.996 215.365 135.207 217.255 135.332 219.159L136.509 233.727C136.645 234.626 136.594 235.562 136.362 236.422C136.042 237.172 135.569 237.772 135.005 238.145C131.61 240.813 127.622 241.598 123.833 240.342C122.961 239.978 122.073 239.689 121.176 239.475C119.743 239.223 118.285 239.628 116.839 239.475C113.906 239.165 111.329 236.61 109.296 233.645C108.073 231.887 106.962 229.004 108.102 227.117C108.42 226.661 108.816 226.326 109.252 226.142C109.688 225.957 110.15 225.93 110.595 226.062C111.483 226.34 112.338 226.788 113.139 227.392C115.944 229.206 118.944 230.36 122.018 230.808C124.114 231.119 126.779 230.621 127.504 227.832C127.856 226.478 127.608 224.978 127.361 223.577L125.333 212.063C125.249 211.664 131.204 192.491 131.866 196.558Z" fill="#FBBEBE"/>
<path d="M96.402 163.373C95.8614 160.66 95.103 157.267 96.6241 155.427C97.1708 154.837 97.8294 154.485 98.5182 154.413C101.933 153.827 105.466 156.64 108.735 155.14C109.777 154.664 110.699 153.776 111.388 152.583C112.078 151.39 112.506 149.944 112.621 148.418C112.735 146.893 112.532 145.354 112.035 143.987C111.538 142.619 110.769 141.482 109.82 140.713C108.391 139.541 106.685 139.313 105.039 139.107C100.701 138.551 96.1799 138.035 92.1235 140.279C88.0672 142.524 84.6477 148.302 85.4858 154.285C85.8755 157.138 87.1369 159.594 88.4192 161.867C89.4039 163.596 93.3555 171.829 94.9437 171.712C97.1814 171.536 96.754 165.137 96.402 163.373Z" fill="#3F3D56"/>
<path opacity="0.1" d="M109.82 140.713C109.578 140.517 109.325 140.347 109.065 140.203C109.801 141.137 110.349 142.324 110.653 143.647C110.958 144.969 111.009 146.381 110.801 147.739C110.593 149.098 110.134 150.356 109.469 151.389C108.804 152.421 107.957 153.191 107.012 153.622C103.744 155.122 100.211 152.31 96.7957 152.896C96.1069 152.967 95.4483 153.319 94.9016 153.909C93.3805 155.749 94.1389 159.142 94.6795 161.855C95.0315 163.613 95.4589 170.018 93.2296 170.194H93.1919C93.8833 171.137 94.5077 171.753 94.9519 171.718C97.1812 171.542 96.7538 165.143 96.4018 163.379C95.8612 160.666 95.1027 157.273 96.6239 155.433C97.1706 154.843 97.8292 154.49 98.518 154.419C101.933 153.833 105.466 156.646 108.734 155.146C109.777 154.669 110.699 153.781 111.388 152.589C112.078 151.396 112.506 149.95 112.621 148.424C112.735 146.899 112.532 145.36 112.035 143.992C111.538 142.625 110.769 141.488 109.82 140.719V140.713Z" fill="black"/>
<path d="M288.305 352.102H151.695V411.287H288.305V352.102Z" fill="#3F3D56"/>
<path d="M214.133 371.229V392.148L225.867 381.688L214.133 371.229Z" fill="white"/>
<path d="M109.371 19.9997L102.868 25.7658L106.815 15.7279C105.696 14.4791 104.312 13.7883 102.88 13.7648H102.776C102.324 13.7741 101.872 13.727 101.426 13.6242L99.222 15.5755L100.169 13.173C98.6053 12.4123 97.2551 10.9757 96.3138 9.07108L92.3664 12.587L94.8597 6.25248C92.5508 2.3791 89.4414 0.00585938 86.022 0.00585938C81.9195 0.00585938 78.2654 3.4163 75.9062 8.7312C75.2085 10.3271 74.2199 11.6348 73.0417 12.5204C71.8636 13.4059 70.5382 13.8374 69.2014 13.7707H68.9793C64.4494 13.7707 60.7786 20.949 60.7786 29.8092C60.7786 38.6693 64.4494 45.8476 68.9793 45.8476C69.9758 45.8411 70.9564 45.4973 71.8372 44.8456C73.3782 43.7967 75.064 43.2294 76.7775 43.1828C78.4911 43.1363 80.1913 43.6117 81.7603 44.576C83.0878 45.4065 84.5258 45.8358 85.9801 45.8358C87.4344 45.8358 88.8724 45.4065 90.1999 44.576C91.7578 43.6315 93.4428 43.1668 95.1405 43.2133C96.8382 43.2598 98.5089 43.8165 100.039 44.8456C100.911 45.4836 101.88 45.8192 102.864 45.8242C107.393 45.8242 111.064 38.64 111.064 29.7857C111.095 26.3769 110.513 23.0118 109.371 19.9997Z" fill="#F2F2F2"/>
<path opacity="0.03" d="M97.11 43.4685C94.7478 42.8421 92.3058 43.2134 90.0951 44.535C88.7672 45.3637 87.3294 45.792 85.8753 45.792C84.4212 45.792 82.9834 45.3637 81.6555 44.535C80.086 43.5727 78.3857 43.099 76.6723 43.1465C74.9589 43.1941 73.2734 43.7618 71.7324 44.8104C70.8511 45.4597 69.8707 45.8014 68.8745 45.8066C64.8517 45.8066 61.5035 40.1401 60.8079 32.6629C61.6099 31.8409 62.2925 30.8127 62.8193 29.6334C65.1785 24.3126 68.8326 20.9022 72.9351 20.9022C77.0376 20.9022 80.6456 24.2716 82.9922 29.5337C83.6984 31.1164 84.6846 32.4177 85.8554 33.3117C87.0262 34.2058 88.3421 34.6625 89.6761 34.6377H89.7808C92.9865 34.6377 95.7606 38.2298 97.11 43.4685Z" fill="black"/>
<path d="M331.886 150.698L328.642 153.575L330.612 148.565C330.054 147.944 329.364 147.599 328.651 147.587H328.596C328.372 147.592 328.148 147.57 327.926 147.522L326.807 148.507L327.281 147.305C326.501 146.927 325.828 146.213 325.357 145.266L323.388 147.024L324.645 143.866C324.121 142.921 323.454 142.151 322.692 141.612C321.929 141.073 321.091 140.778 320.236 140.748C318.191 140.748 316.369 142.448 315.208 145.102C314.858 145.899 314.364 146.552 313.775 146.993C313.186 147.435 312.523 147.65 311.855 147.616H311.746C309.488 147.616 307.656 151.202 307.656 155.615C307.656 160.027 309.488 163.619 311.746 163.619C312.243 163.616 312.732 163.445 313.171 163.121C313.94 162.598 314.78 162.314 315.635 162.29C316.489 162.266 317.337 162.501 318.12 162.981C318.779 163.397 319.493 163.615 320.215 163.619C320.937 163.616 321.65 163.404 322.311 162.998C323.087 162.527 323.928 162.295 324.774 162.317C325.621 162.339 326.454 162.615 327.218 163.127C327.652 163.447 328.135 163.616 328.626 163.619C330.884 163.619 332.716 160.033 332.716 155.615C332.74 153.904 332.455 152.213 331.886 150.698Z" fill="#F2F2F2"/>
<path opacity="0.03" d="M325.755 162.406C324.576 162.09 323.355 162.276 322.252 162.94C321.592 163.351 320.879 163.563 320.157 163.563C319.435 163.563 318.721 163.351 318.061 162.94C317.278 162.461 316.431 162.225 315.576 162.248C314.722 162.272 313.881 162.553 313.112 163.074C312.674 163.401 312.185 163.574 311.688 163.578C309.68 163.578 308.013 160.748 307.665 157.021C308.065 156.612 308.405 156.098 308.666 155.509C309.844 152.855 311.667 151.155 313.695 151.155C315.723 151.155 317.542 152.837 318.723 155.456C319.076 156.253 319.57 156.908 320.158 157.357C320.745 157.806 321.406 158.033 322.076 158.017H322.126C323.698 158 325.085 159.793 325.755 162.406Z" fill="black"/>
<path d="M339.064 75.9791L344.273 80.6025L341.105 72.5569C342.001 71.5588 343.11 71.0063 344.256 70.9865H344.34C344.702 70.994 345.064 70.9568 345.421 70.8751L347.189 72.4397L346.431 70.5177C347.681 69.9043 348.762 68.7562 349.519 67.2361L352.683 70.0372L350.684 64.9625C352.532 61.8568 355.026 59.9582 357.766 59.9582C361.056 59.9582 363.981 62.6889 365.871 66.949C366.429 68.2238 367.22 69.2689 368.161 69.9781C369.103 70.6873 370.161 71.0352 371.23 70.9865H371.406C375.035 70.9865 377.977 76.7409 377.977 83.8372C377.977 90.9335 375.044 96.6879 371.406 96.6879C370.608 96.6821 369.823 96.4066 369.118 95.885C367.882 95.0423 366.529 94.5864 365.154 94.5489C363.779 94.5115 362.415 94.8934 361.156 95.6682C360.093 96.3326 358.941 96.676 357.777 96.676C356.612 96.676 355.46 96.3326 354.397 95.6682C353.149 94.9104 351.8 94.537 350.439 94.5734C349.079 94.6098 347.741 95.0552 346.515 95.8792C345.814 96.389 345.037 96.6582 344.248 96.6644C340.619 96.6644 337.677 90.91 337.677 83.8137C337.664 81.0811 338.141 78.3874 339.064 75.9791Z" fill="#F2F2F2"/>
<path opacity="0.03" d="M348.882 94.7834C350.779 94.2783 352.74 94.5761 354.514 95.6389C355.578 96.3033 356.729 96.6467 357.894 96.6467C359.059 96.6467 360.21 96.3033 361.274 95.6389C362.533 94.8666 363.897 94.4865 365.272 94.5249C366.647 94.5634 367.999 95.0195 369.235 95.8616C369.941 96.3814 370.726 96.6548 371.523 96.6586C374.746 96.6586 377.428 92.1172 377.989 86.1108C377.343 85.4556 376.795 84.6293 376.376 83.6789C374.486 79.4247 371.557 76.6881 368.272 76.6881C364.986 76.6881 362.091 79.3895 360.201 83.6028C359.636 84.8732 358.846 85.9183 357.908 86.6369C356.97 87.3555 355.915 87.7233 354.845 87.7047H354.762C352.189 87.7105 349.963 90.5877 348.882 94.7834Z" fill="black"/>
</svg>
