<svg width="208" height="208" viewBox="0 0 208 208" fill="none" xmlns="http://www.w3.org/2000/svg">
<g clip-path="url(#clip0)" filter="url(#filter0_d)">
<path d="M204 180.097C204 186.167 159.228 200 104 200C48.7715 200 4 186.167 4 180.097C4 174.027 48.7715 178.018 104 178.018C159.228 178.018 204 174.027 204 180.097Z" fill="#3F3D56"/>
<path opacity="0.1" d="M204 180.097C204 186.167 159.228 200 104 200C48.7715 200 4 186.167 4 180.097C4 174.027 48.7715 178.018 104 178.018C159.228 178.018 204 174.027 204 180.097Z" fill="black"/>
<path d="M32.479 99.2979C34.8025 99.2979 36.6861 97.569 36.6861 95.4362C36.6861 93.3034 34.8025 91.5745 32.479 91.5745C30.1554 91.5745 28.2719 93.3034 28.2719 95.4362C28.2719 97.569 30.1554 99.2979 32.479 99.2979Z" fill="#F72585"/>
<path d="M50.9255 131.083C53.249 131.083 55.1326 129.354 55.1326 127.221C55.1326 125.088 53.249 123.359 50.9255 123.359C48.602 123.359 46.7184 125.088 46.7184 127.221C46.7184 129.354 48.602 131.083 50.9255 131.083Z" fill="#F72585"/>
<path d="M36.6861 123.062C39.0097 123.062 40.8933 121.334 40.8933 119.201C40.8933 117.068 39.0097 115.339 36.6861 115.339C34.3626 115.339 32.479 117.068 32.479 119.201C32.479 121.334 34.3626 123.062 36.6861 123.062Z" fill="#F72585"/>
<path d="M38.028 174.014C37.9538 173.903 36.2026 171.219 35.5955 165.645C35.0386 160.532 35.3967 151.913 40.2662 139.891C49.4914 117.116 38.1402 98.739 38.0243 98.5559L38.5843 98.2577C38.6137 98.3041 41.5427 102.989 43.273 110.45C45.5593 120.341 44.7268 130.626 40.873 140.098C31.6636 162.835 38.5103 173.598 38.5805 173.704L38.028 174.014Z" fill="#CFCCE0"/>
<path d="M34.4208 97.5156C33.5247 97.5156 32.6487 97.2717 31.9036 96.8148C31.1585 96.3578 30.5778 95.7083 30.2349 94.9484C29.892 94.1884 29.8023 93.3522 29.9771 92.5455C30.1519 91.7388 30.5834 90.9978 31.217 90.4161C31.8507 89.8345 32.658 89.4384 33.5369 89.278C34.4157 89.1175 35.3267 89.1999 36.1546 89.5146C36.9825 89.8294 37.6901 90.3624 38.1879 91.0463C38.6858 91.7303 38.9515 92.5343 38.9515 93.3569C38.9502 94.4595 38.4724 95.5165 37.623 96.2962C36.7736 97.0758 35.622 97.5144 34.4208 97.5156ZM34.4208 89.7922C33.6527 89.7922 32.9018 90.0012 32.2632 90.3929C31.6246 90.7846 31.1268 91.3413 30.8329 91.9927C30.539 92.6441 30.462 93.3608 30.6119 94.0523C30.7617 94.7438 31.1316 95.3789 31.6747 95.8775C32.2178 96.376 32.9098 96.7155 33.6631 96.853C34.4165 96.9906 35.1973 96.92 35.9069 96.6502C36.6165 96.3804 37.223 95.9235 37.6498 95.3373C38.0765 94.7511 38.3043 94.0619 38.3043 93.3569C38.3031 92.4118 37.8935 91.5057 37.1655 90.8374C36.4375 90.1692 35.4504 89.7933 34.4208 89.7922Z" fill="#CFCCE0"/>
<path d="M47.6893 111.477C50.0128 111.477 51.8964 109.748 51.8964 107.616C51.8964 105.483 50.0128 103.754 47.6893 103.754C45.3658 103.754 43.4822 105.483 43.4822 107.616C43.4822 109.748 45.3658 111.477 47.6893 111.477Z" fill="#CFCCE0"/>
<path d="M38.6278 121.28C37.7317 121.28 36.8557 121.036 36.1106 120.579C35.3656 120.122 34.7848 119.473 34.4419 118.713C34.099 117.953 34.0093 117.117 34.1841 116.31C34.3589 115.503 34.7904 114.762 35.4241 114.181C36.0577 113.599 36.865 113.203 37.7439 113.042C38.6228 112.882 39.5338 112.964 40.3616 113.279C41.1895 113.594 41.8971 114.127 42.395 114.811C42.8928 115.495 43.1585 116.299 43.1585 117.121C43.1572 118.224 42.6794 119.281 41.83 120.061C40.9806 120.84 39.829 121.279 38.6278 121.28ZM38.6278 113.557C37.8597 113.557 37.1089 113.766 36.4702 114.157C35.8316 114.549 35.3338 115.106 35.0399 115.757C34.746 116.409 34.6691 117.125 34.8189 117.817C34.9687 118.508 35.3386 119.143 35.8817 119.642C36.4249 120.141 37.1168 120.48 37.8701 120.618C38.6235 120.755 39.4043 120.685 40.1139 120.415C40.8235 120.145 41.4301 119.688 41.8568 119.102C42.2835 118.516 42.5113 117.826 42.5113 117.121C42.5101 116.176 42.1006 115.27 41.3726 114.602C40.6445 113.934 39.6574 113.558 38.6278 113.557V113.557Z" fill="#CFCCE0"/>
<path d="M49.6311 129.301C48.735 129.301 47.859 129.057 47.1139 128.6C46.3689 128.143 45.7881 127.493 45.4452 126.733C45.1023 125.973 45.0126 125.137 45.1874 124.331C45.3622 123.524 45.7937 122.783 46.4274 122.201C47.061 121.62 47.8683 121.223 48.7472 121.063C49.6261 120.903 50.537 120.985 51.3649 121.3C52.1928 121.614 52.9004 122.147 53.3983 122.831C53.8961 123.515 54.1618 124.319 54.1618 125.142C54.1605 126.244 53.6827 127.302 52.8333 128.081C51.9839 128.861 50.8323 129.299 49.6311 129.301ZM49.6311 121.577C48.863 121.577 48.1122 121.786 47.4735 122.178C46.8349 122.57 46.3371 123.126 46.0432 123.778C45.7493 124.429 45.6724 125.146 45.8222 125.837C45.9721 126.529 46.3419 127.164 46.885 127.662C47.4282 128.161 48.1201 128.501 48.8735 128.638C49.6268 128.776 50.4076 128.705 51.1172 128.435C51.8269 128.165 52.4334 127.708 52.8601 127.122C53.2868 126.536 53.5146 125.847 53.5146 125.142C53.5134 124.197 53.1039 123.291 52.3759 122.622C51.6478 121.954 50.6607 121.578 49.6311 121.577Z" fill="#CFCCE0"/>
<path d="M35.3916 141.48C37.7151 141.48 39.5987 139.751 39.5987 137.618C39.5987 135.485 37.7151 133.756 35.3916 133.756C33.068 133.756 31.1844 135.485 31.1844 137.618C31.1844 139.751 33.068 141.48 35.3916 141.48Z" fill="#CFCCE0"/>
<path d="M40.5696 174.156C40.5696 174.156 36.3625 164.65 48.9839 157.521L40.5696 174.156Z" fill="#CFCCE0"/>
<path d="M35.3955 173.984C35.3955 173.984 33.4808 163.875 18.6614 163.962L35.3955 173.984Z" fill="#CFCCE0"/>
<path d="M187.281 177.721H115.671C115.671 177.721 114.22 158.179 122.808 157.957C131.396 157.735 130.429 166.618 141.194 154.404C151.96 142.191 165.024 142.857 166.717 150.074C168.411 157.291 163.451 163.065 172.523 161.288C181.596 159.512 194.66 164.175 187.281 177.721Z" fill="#F72585"/>
<path d="M150.267 177.725L150.025 177.716C150.589 164.85 153.525 156.584 155.888 151.915C158.454 146.845 160.927 144.793 160.952 144.772L161.112 144.938C161.088 144.958 158.644 146.99 156.098 152.026C153.748 156.675 150.829 164.908 150.267 177.725Z" fill="#F2F2F2"/>
<path d="M176.185 177.752L175.952 177.69C178.749 168.879 185.334 163.316 185.401 163.261L185.563 163.425C185.497 163.48 178.961 169.004 176.185 177.752Z" fill="#F2F2F2"/>
<path d="M126.95 177.736L126.71 177.706C127.659 171.424 125.945 166.551 124.34 163.569C122.603 160.34 120.62 158.577 120.6 158.559L120.767 158.399C120.788 158.417 122.801 160.207 124.557 163.471C126.177 166.481 127.907 171.399 126.95 177.736Z" fill="#F2F2F2"/>
<path d="M197 178.018H107.947L107.927 177.741C107.876 177.052 106.74 160.804 112.475 155.007C113.757 153.711 115.302 153.03 117.066 152.985C120.804 152.887 123.154 154.173 125.049 155.204C128.62 157.149 130.98 158.434 139.559 148.701C148.853 138.157 158.88 135.889 164.645 137.15C168.369 137.966 170.936 140.269 171.688 143.471C172.399 146.503 172.173 149.352 171.991 151.641C171.796 154.09 171.642 156.024 172.738 156.901C173.652 157.632 175.478 157.699 178.484 157.11C184.596 155.913 193.125 156.937 197.406 162.015C199.71 164.746 201.524 169.711 197.089 177.854L197 178.018ZM108.555 177.424H196.599C199.904 171.269 200.007 166.069 196.895 162.378C192.967 157.721 184.728 156.495 178.619 157.691C175.354 158.331 173.408 158.225 172.312 157.349C170.973 156.277 171.137 154.212 171.345 151.597C171.524 149.346 171.747 146.545 171.055 143.596C170.358 140.627 167.967 138.488 164.495 137.728C158.914 136.506 149.167 138.746 140.062 149.075C131.131 159.207 128.441 157.742 124.718 155.715C122.8 154.671 120.622 153.487 117.084 153.579C115.503 153.62 114.113 154.234 112.954 155.406C107.799 160.616 108.429 175.227 108.555 177.424Z" fill="#CFCCE0"/>
<path d="M104 191.088C159.228 191.088 204 186.167 204 180.097C204 174.027 159.228 169.106 104 169.106C48.7715 169.106 4 174.027 4 180.097C4 186.167 48.7715 191.088 104 191.088Z" fill="#3F3D56"/>
<path d="M106.199 36.3147C106.199 36.3147 101.2 34.6758 97.9857 41.2314C94.7718 47.787 89.7725 54.9981 89.7725 54.9981L92.6292 55.6537C92.6292 55.6537 93.3434 51.0647 95.1289 50.4092L94.4147 56.3092C94.4147 56.3092 115.84 63.1926 125.482 55.6537L125.125 53.3592C125.125 53.3592 126.553 53.687 126.553 55.6537L127.625 54.6703C127.625 54.6703 126.553 52.7036 123.339 50.0814C121.23 48.3603 120.505 45.0859 120.256 43.0387C120.069 41.3292 119.324 39.7115 118.118 38.3975C115.983 36.1255 112.091 33.7107 106.199 36.3147Z" fill="#2F2E41"/>
<path d="M100.926 62.0174L95.7475 56.0763L91.864 43.8969L106.751 29.3412C106.751 29.3412 109.987 18.0531 107.074 18.6472C104.162 19.2413 103.515 27.5589 103.515 27.5589L84.7443 40.9264C84.7443 40.9264 86.686 59.6409 92.1876 66.1762L96.3948 78.3555L100.926 62.0174Z" fill="#FFB9B9"/>
<path d="M115.165 62.0174L120.343 56.0763L124.227 43.8969L109.34 29.3412C109.34 29.3412 106.104 18.0531 109.016 18.6472C111.929 19.2413 112.576 27.5589 112.576 27.5589L131.346 40.9264C131.346 40.9264 129.405 59.6409 123.903 66.1762L119.696 78.3555L115.165 62.0174Z" fill="#FFB9B9"/>
<path d="M108.045 56.9674C112.692 56.9674 116.46 53.5095 116.46 49.244C116.46 44.9784 112.692 41.5205 108.045 41.5205C103.398 41.5205 99.6311 44.9784 99.6311 49.244C99.6311 53.5095 103.398 56.9674 108.045 56.9674Z" fill="#FFB9B9"/>
<path d="M104.162 53.4028C104.162 53.4028 104.485 59.6409 102.544 61.7203C100.602 63.7997 98.6601 74.4938 108.045 74.7908C117.43 75.0879 116.459 65.8791 116.459 65.8791L114.518 60.8292C114.518 60.8292 111.605 56.9674 112.576 53.4028H104.162Z" fill="#FFB9B9"/>
<path d="M95.424 122.617L102.382 124.548C102.382 124.548 108.045 121.429 108.045 124.399C108.045 127.37 106.104 131.232 106.751 133.905C107.398 136.579 108.693 143.114 106.751 143.114C104.809 143.114 100.926 131.529 100.926 131.529L94.4531 128.261L95.424 122.617Z" fill="#FFB9B9"/>
<path d="M104.162 164.205L101.573 173.413C101.573 173.413 99.3075 176.087 101.573 177.275C102.636 177.833 103.414 178.979 103.94 180.039C104.399 180.993 105.167 181.795 106.139 182.335C107.112 182.875 108.241 183.127 109.375 183.057C110.48 182.973 111.41 182.572 111.637 181.53C111.699 181.203 111.687 180.868 111.601 180.546C111.515 180.223 111.356 179.921 111.136 179.658C108.748 176.697 108.207 174.75 108.207 174.75L109.178 164.353L104.162 164.205Z" fill="#FFB9B9"/>
<path d="M97.8952 50.6157C97.8952 50.6157 100.752 47.0101 103.252 46.3545C105.751 45.699 106.108 42.4212 106.108 42.4212C106.108 42.4212 112.536 48.9768 116.464 49.3045C120.392 49.6323 116.821 41.4378 116.821 41.4378L109.679 39.799L102.895 40.4545L97.5381 43.7323L97.8952 50.6157Z" fill="#2F2E41"/>
<path d="M92.5113 100.041L91.2168 102.417C91.2168 102.417 59.8252 111.626 62.4142 120.24C65.0032 128.855 79.5663 126.479 79.5663 126.479L95.7476 129.152L97.3657 122.617L86.0388 119.943L105.456 113.408L106.104 143.708L103.515 165.393L109.987 165.987C109.987 165.987 117.107 146.084 116.136 137.767C116.136 137.767 128.11 103.902 121.314 98.8524C114.518 93.8024 92.5113 100.041 92.5113 100.041Z" fill="#2F2E41"/>
<path d="M108.425 65.8832L103.375 60.2814L99.9546 61.7204L96.3948 72.1173C96.3948 72.1173 93.4821 77.1673 97.042 82.5143C97.042 82.5143 97.6893 86.079 96.7184 86.9701C95.7475 87.8613 95.4239 93.5054 95.4239 93.5054L91.2168 100.932C91.2168 100.932 115.165 104.794 122.285 99.4465C122.285 99.4465 118.549 86.8034 120.814 82.9416C123.079 79.0799 123.403 73.1598 120.814 70.4863C118.225 67.8128 115.489 60.8292 115.489 60.8292L113.921 59.9091L108.425 65.8832Z" fill="#CFCCE0"/>
<path d="M127.304 21.532H124.2V18.683H123.918V21.532H120.814V21.7909H123.918V24.6399H124.2V21.7909H127.304V21.532Z" fill="#CFCCE0"/>
<path d="M97.8052 15.5751H94.7014V12.7261H94.4194V15.5751H91.3156V15.834H94.4194V18.683H94.7014V15.834H97.8052V15.5751Z" fill="#CFCCE0"/>
<path d="M111.965 2.84902H108.861V0H108.579V2.84902H105.475V3.10788H108.579V5.9569H108.861V3.10788H111.965V2.84902Z" fill="#CFCCE0"/>
</g>
<defs>
<filter id="filter0_d" x="0" y="0" width="208" height="208" filterUnits="userSpaceOnUse" color-interpolation-filters="sRGB">
<feFlood flood-opacity="0" result="BackgroundImageFix"/>
<feColorMatrix in="SourceAlpha" type="matrix" values="0 0 0 0 0 0 0 0 0 0 0 0 0 0 0 0 0 0 127 0"/>
<feOffset dy="4"/>
<feGaussianBlur stdDeviation="2"/>
<feColorMatrix type="matrix" values="0 0 0 0 0 0 0 0 0 0 0 0 0 0 0 0 0 0 0.25 0"/>
<feBlend mode="normal" in2="BackgroundImageFix" result="effect1_dropShadow"/>
<feBlend mode="normal" in="SourceGraphic" in2="effect1_dropShadow" result="shape"/>
</filter>
<clipPath id="clip0">
<rect width="200" height="200" fill="white" transform="translate(4)"/>
</clipPath>
</defs>
</svg>
